{"title":"Avengers.Age.of.Ultron.2015.BRRip.X264.AC3.VAIN","uid":12389273,"size":4427260294,"categoryP":"video","categoryS":"movies","magnet":"?xt=urn:btih:af76f68c9d6aa0e631e40d3d1cb1fc02cc16fd76&amp;dn=Avengers.Age.of.Ultron.2015.BRRip.X264.AC3.VAIN&amp;tr=udp%3A%2F%2Ftracker.openbittorrent.com%3A80&amp;tr=udp%3A%2F%2Fopen.demonii.com%3A1337&amp;tr=udp%3A%2F%2Ftracker.coppersurfer.tk%3A6969&amp;tr=udp%3A%2F%2Fexodus.desync.com%3A6969","seeders":0,"leechers":0,"uploader":"TvTeam","files":5,"time":1441864626,"description":"------------------------------------------------------------------------\n\n &lt;a href=&quot; https://www.torrenting.com&quot; rel=&quot;nofollow&quot; target=&quot;_NEW&quot;&gt; https://www.torrenting.com&lt;/a&gt;\n\nSign up is OPEN - for time being. Come and have fun\n\n.......................................................................................................................\n[img]http://i.imgur.com/BJcJlBa.jpg[/img]\n\n[img]http://i.imgur.com/x919sjf.png[/img]\n\n\nIMDB:http://www.imdb.com/title/tt2395427/\n\nWhen Tony Stark and Bruce Banner try to jump-start a dormant peacekeeping program called Ultron, things go horribly wrong and it's up to Earth's Mightiest Heroes to stop the villainous Ultron from enacting his terrible plans.\n\n\nAvengers.Age.of.Ultron.2015.720.WEB-DL.X264.AC3.VAIN.mkv\nFormat                      : Matroska\nFormat version              : Version 2\nFile size                   : 3.84 GiB\nDuration                    : 2h 21mn\nOverall bit rate            : 3 883 Kbps\nEncoded date                : UTC 2015-08-26 21:46:03\nWriting application         : mkvmerge v5.7.0 ('The Whirlwind') built on Jul  8 2012 20:08:51\nWriting library             : libebml v1.2.3 + libmatroska v1.3.0\n\nVideo\nID                          : 1\nFormat                      : AVC\nFormat/Info                 : Advanced Video Codec\nFormat profile              : &lt;a class=&quot;__cf_email__&quot; href=&quot;/cdn-cgi/l/email-protection&quot; data-cfemail=&quot;0f476668674f433c213e&quot;&gt;[email&amp;#160;protected]&lt;/a&gt;&lt;script data-cfhash='f9e31' type=&quot;text/javascript&quot;&gt;\n/* &lt;![CDATA[ */!function(){try{var t=&quot;currentScript&quot;in document?document.currentScript:function(){for(var t=document.getElementsByTagName(&quot;script&quot;),e=t.length;e--;)if(t[e].getAttribute(&quot;data-cfhash&quot;))return t[e]}();if(t&amp;&amp;t.previousSibling){var e,r,n,i,c=t.previousSibling,a=c.getAttribute(&quot;data-cfemail&quot;);if(a){for(e=&quot;&quot;,r=parseInt(a.substr(0,2),16),n=2;a.length-n;n+=2)i=parseInt(a.substr(n,2),16)^r,e+=String.fromCharCode(i);e=document.createTextNode(e),c.parentNode.replaceChild(e,c)}t.parentNode.removeChild(t);}}catch(u){}}()/* ]]&gt; */&lt;/script&gt;\nFormat settings, CABAC      : Yes\nFormat settings, ReFrames   : 6 frames\nMuxing mode                 : Header stripping\nCodec ID                    : V_MPEG4/ISO/AVC\nDuration                    : 2h 21mn\nBit rate                    : 3 499 Kbps\nWidth                       : 1 280 pixels\nHeight                      : 528 pixels\nDisplay aspect ratio        : 2.40:1\nFrame rate mode             : Constant\nFrame rate                  : 23.976 fps\nColor space                 : YUV\nChroma subsampling          : 4:2:0\nBit depth                   : 8 bits\nScan type                   : Progressive\nBits/(Pixel*Frame)          : 0.216\nStream size                 : 3.39 GiB (88%)\nWriting library             : x264 core 142 r2431 ac76440\nEncoding settings           : cabac=1 / ref=6 / deblock=1:-1:-1 / analyse=0x3:0x113 / me=umh / subme=10 / psy=1 / psy_rd=1.00:0.00 / mixed_ref=1 / me_range=64 / chroma_me=1 / trellis=2 / 8x8dct=1 / cqm=0 / deadzone=21,11 / fast_pskip=0 / chroma_qp_offset=-2 / threads=6 / lookahead_threads=1 / sliced_threads=0 / nr=0 / decimate=0 / interlaced=0 / bluray_compat=0 / constrained_intra=0 / bframes=6 / b_pyramid=0 / b_adapt=2 / b_bias=0 / direct=3 / weightb=1 / open_gop=0 / weightp=2 / keyint=240 / keyint_min=23 / scenecut=40 / intra_refresh=0 / rc_lookahead=40 / rc=2pass / mbtree=1 / bitrate=3499 / ratetol=1.0 / qcomp=0.60 / qpmin=10 / qpmax=51 / qpstep=4 / cplxblur=20.0 / qblur=0.5 / vbv_maxrate=16800 / vbv_bufsize=16800 / nal_hrd=none / filler=0 / ip_ratio=1.40 / aq=1:1.00\nDefault                     : Yes\nForced                      : No\n\nAudio\nID                          : 2\nFormat                      : AC-3\nFormat/Info                 : Audio Coding 3\nMode extension              : CM (complete main)\nFormat settings, Endianness : Big\nMuxing mode                 : Header stripping\nCodec ID                    : A_AC3\nDuration                    : 2h 21mn\nBit rate mode               : Constant\nBit rate                    : 384 Kbps\nChannel(s)                  : 6 channels\nChannel positions           : Front: L C R, Side: L R, LFE\nSampling rate               : 48.0 KHz\nCompression mode            : Lossy\nStream size                 : 389 MiB (10%)\nDefault                     : Yes\nForced                      : No\n\n:screens:\n\n[img]http://i.imgur.com/KerB3pa.jpg[/img]\n[img]http://i.imgur.com/xF7vvmy.jpg[/img]\n[img]http://i.imgur.com/lDaPNKj.jpg[/img]\n\nHive-CM8 | Rx | REFiLL | JEDI | DREAMER n' LADY | 26k |Unevano | EsX | TOFFEE\nGH0ST | ViSiON | Sugarb | DeviAntsRUs | STARLETS | GUSH | A.C.A.B. | jamie111 | TED |\n\nAnd all the release grps that don't hide behind new names, or live in the past n\n\nglory of old has been that neva were release grps\n\nCheer's to our wives n girlfriends... may they neva meet","torrent":{"xt":"urn:btih:af76f68c9d6aa0e631e40d3d1cb1fc02cc16fd76","amp;dn":"Avengers.Age.of.Ultron.2015.BRRip.X264.AC3.VAIN","amp;tr":["udp%3A%2F%2Ftracker.openbittorrent.com%3A80","udp%3A%2F%2Fopen.demonii.com%3A1337","udp%3A%2F%2Ftracker.coppersurfer.tk%3A6969","udp%3A%2F%2Fexodus.desync.com%3A6969"],"infoHash":"af76f68c9d6aa0e631e40d3d1cb1fc02cc16fd76","infoHashBuffer":{"type":"Buffer","data":[175,118,246,140,157,106,160,230,49,228,13,61,28,177,252,2,204,22,253,118]},"announce":[],"urlList":[]}}